<?xml version="1.0" encoding="utf-8"?>
<!-- Generator: Adobe Illustrator 25.3.1, SVG Export Plug-In . SVG Version: 6.00 Build 0)  -->
<svg width="73.6" height="73.6" version="1.1" id="Layer_logo" 
	xmlns:x="http://ns.adobe.com/Extensibility/1.0/" 
	xmlns:i="http://ns.adobe.com/AdobeIllustrator/10.0/" 
	xmlns:graph="http://ns.adobe.com/Graphs/1.0/"
	xmlns="http://www.w3.org/2000/svg" 
	xmlns:xlink="http://www.w3.org/1999/xlink" x="0px" y="0px" viewBox="0 0 73.6 73.6"
	style="enable-background:new 0 0 73.6 73.6;" xml:space="preserve">
<style type="text/css">
	.st0{fill:#f7941d;}
</style>
<g i:extraneous="self">
	<g>
		<path class="st0" d="M15.4,1.2h32.3c6.1,0,10.7,0.7,13.8,2.2c3.1,1.4,5.4,3.6,7.1,6.4c1.6,2.8,2.4,6.3,2.4,10.4
			c0,5.3-1.4,10.1-4.3,14.2c-2.9,4.2-6.5,7.1-10.9,9c-4.4,1.8-10.4,2.7-18.2,2.7h-9.7l-5.7,26.2H0L15.4,1.2z M30.9,32h7.4
			c3.5,0,6.3-1,8.5-3c2.2-2,3.3-4.4,3.3-7.2c0-4.2-2.3-6.4-7-6.4h-8.7L30.9,32z"/>
	</g>
</g>
</svg>
